<?xml version="1.0" encoding="UTF-8" standalone="no"?>
<!DOCTYPE svg PUBLIC "-//W3C//DTD SVG 1.1//EN" "http://www.w3.org/Graphics/SVG/1.1/DTD/svg11.dtd">
<svg width="100%" height="100%" viewBox="0 0 160 160" version="1.1" xmlns="http://www.w3.org/2000/svg" xmlns:xlink="http://www.w3.org/1999/xlink" xml:space="preserve" xmlns:serif="http://www.serif.com/" style="fill-rule:evenodd;clip-rule:evenodd;stroke-linejoin:round;stroke-miterlimit:2;">
    <g id="Filae-icon" serif:id="Filae icon" transform="matrix(2.35185,0,0,2.35185,-246.666,-253.84)">
        <path d="M167.834,107.932L126.505,107.932C123.776,107.932 121.556,110.23 121.556,113.055L121.556,125.776C121.556,126.903 121.23,127.696 120.661,127.953C120.114,128.199 119.329,127.98 118.663,127.392C116.109,125.14 112.72,124.509 109.818,125.745C106.882,126.994 105.037,129.937 104.883,133.615C104.881,133.668 104.881,133.721 104.883,133.773C105.037,137.455 106.879,140.398 109.809,141.646C112.701,142.878 116.081,142.244 118.632,139.996C119.302,139.405 120.096,139.186 120.653,139.438C121.227,139.697 121.556,140.489 121.556,141.612L121.556,154.333C121.556,157.122 123.684,159.226 126.505,159.226L133.989,159.226C133.824,159.14 133.688,159.012 133.57,158.864C133.241,158.58 133.037,158.132 133.037,157.506L133.037,122.304C133.037,120.206 134.629,118.185 137.1,118.185L157.473,118.185C158.792,118.185 159.563,118.509 160.004,119.052L158.057,126.743C158.027,126.744 157.998,126.748 157.967,126.748L141.624,126.748L141.624,132.992L150.159,132.992C151.381,132.992 152.018,133.521 152.347,134.133C152.47,134.292 152.566,134.464 152.64,134.638L150.822,141.819C150.698,141.828 150.569,141.833 150.431,141.833L141.624,141.833L141.624,160.647C141.617,160.692 141.611,160.737 141.607,160.783C141.564,161.237 141.333,161.722 140.955,162.15C138.696,164.705 138.066,168.104 139.31,171.019C140.565,173.96 143.509,175.808 147.186,175.961C147.212,175.962 147.239,175.963 147.265,175.963C147.291,175.963 147.318,175.962 147.344,175.961C151.021,175.808 153.965,173.963 155.22,171.025C156.463,168.113 155.832,164.716 153.575,162.161C152.982,161.49 152.763,160.693 153.017,160.131C153.277,159.556 154.07,159.226 155.192,159.226L167.834,159.226C170.682,159.226 172.913,157.077 172.913,154.333L172.913,113.055C172.913,110.23 170.635,107.932 167.834,107.932Z" style="fill:rgb(255,85,85);fill-rule:nonzero;"/>
    </g>
</svg>